<?xml version="1.0" encoding="utf-8"?>
<!-- Generator: Adobe Illustrator 24.2.1, SVG Export Plug-In . SVG Version: 6.00 Build 0)  -->
<svg version="1.1" id="Layer_1" xmlns="http://www.w3.org/2000/svg" xmlns:xlink="http://www.w3.org/1999/xlink" x="0px" y="0px"
	 viewBox="0 0 1280 1024" style="enable-background:new 0 0 1280 1024;" xml:space="preserve">
<style type="text/css">
	.st0{fill:#F44336;}
	.st1{fill:#4CAF50;}
	.st2{fill:#388E3C;}
	.st3{font-family:'HelveticaNeue-CondensedBlack';}
	.st4{font-size:178.9797px;}
	.st5{letter-spacing:5;}
	.st6{font-family:'SignPainter-HouseScript';}
	.st7{fill:none;}
	.st8{font-family:'Braisetto-Regular';}
	.st9{font-size:220px;}
</style>
<g>
	<path class="st0" d="M171.6,58.1c-0.5-0.2-1-0.3-1.6-0.4l-87.8-3.1c-0.6,0-1.1,0.1-1.6,0.2C36.9,68.9,8.5,103.4,8.5,142.7
		c0,52,50.8,94.4,113.2,94.4S235,194.7,235,142.7C235,106.5,210.7,74.1,171.6,58.1z"/>
	<path class="st1" d="M177.8,50.8c-0.7-1.2-1.8-2.1-3.1-2.4c-26.7-5.8-42.4,4.4-47.7,9l-16.5-3.5c-6.3-7.4-24.1-13.1-29.8-14.8
		c-1.4-0.4-3.1-0.1-4.2,0.8c-1.1,0.9-1.9,2.5-1.8,4.1c0,0.7,1.1,14.4,7.6,26.4c-4.6,2.5-11.3,5.5-14.2,6.6c-2.1,0.9-3.3,3-2.8,5.3
		c0.8,3.8,5,7.5,30,8.4c6.3,11.9,13.4,20.3,19.8,23.2c0.7,0.3,1.3,0.5,2,0.5c0.9,0,1.8-0.3,2.6-0.8c7.5-5,12.3-11.8,15-21.7
		c8.4,2.1,20.9,4.2,31.8-1.7c1.6-0.8,2.6-2.6,2.5-4.4c-0.1-1.9-1.3-3.5-3-4.2c-3.9-1.5-7.7-4.4-10.9-7.2c8.3-2.7,18.6-8.3,23-19.7
		C178.6,53.5,178.5,52.1,177.8,50.8z"/>
	<path class="st2" d="M145.8,15.1c-5.6-5.6-15.3-5.6-20.9,0l-4.7,4.7C107.5,32.6,103,53.3,103,67.2v4.9c0,2.6,2.1,4.7,4.7,4.7h18.9
		c2.6,0,4.7-2.1,4.7-4.7v-4.9c0-14.1,5.1-21.8,14.5-31.2C151.5,30.2,151.5,20.9,145.8,15.1z"/>
	<path d="M121.8,237.1c-62.5,0-113.2-42.4-113.2-94.4c0-39.3,28.3-73.8,72.2-87.8c2.5-0.8,5.1,0.6,5.9,3c0.8,2.5-0.6,5.1-3,5.9
		C43.7,76.6,18,107.5,18,142.7c0,46.8,46.5,84.9,103.8,84.9s103.8-38.1,103.8-84.9c0-32.3-22.1-61.4-57.6-75.9
		c-2.5-0.9-3.6-3.8-2.5-6.1c1-2.5,3.8-3.6,6.1-2.5c39.2,15.9,63.4,48.3,63.4,84.5C235,194.7,184.2,237.1,121.8,237.1z"/>
	<path d="M60.4,199.1c-0.9,0-2-0.3-2.8-0.9c-19.2-14.2-30.2-34.4-30.2-55.4c0-2.6,2.1-4.7,4.7-4.7c2.6,0,4.7,2.1,4.7,4.7
		c0,18.2,9.3,35.2,26.4,47.7c2.1,1.5,2.5,4.5,0.9,6.6C63.3,198.4,61.9,199.1,60.4,199.1z"/>
	<path d="M117.1,114.4c-0.7,0-1.3-0.2-2-0.5c-6.4-2.9-13.5-11.4-19.8-23.2c-25-0.9-29.3-4.6-30-8.4c-0.5-2.2,0.8-4.4,2.8-5.3
		c2.8-1.2,9.5-4.2,14.2-6.6c-6.5-12.1-7.5-25.9-7.6-26.4c-0.1-1.6,0.6-3.1,1.8-4.1c1.2-0.9,2.8-1.2,4.3-0.8
		C87,41,107.6,47.6,111.9,56c1.2,2.4,0.3,5.2-2.1,6.3c-2.4,1.2-5.2,0.3-6.3-2.1c-1.3-2.5-9.6-6.5-18.3-9.7
		c1.1,5.4,3.3,12.8,7.5,18.7c1.4,2.1,1,5-1,6.5c-1.9,1.4-5,3.1-8.2,4.7c3.6,0.4,8.5,0.8,14.9,0.9c1.8,0.1,3.3,1,4.2,2.6
		c5.4,10.8,10.7,17.1,14.4,20c5.1-4.2,8-10,9.7-18.8c0.3-1.3,1-2.5,2.2-3.1c1.1-0.7,2.5-0.8,3.8-0.5c4.4,1.2,12.2,3.5,19.8,2.9
		c-3.2-2.5-5.9-5.1-8-7.1c-0.9-0.8-1.5-1.5-2.1-2c-1.4-1.2-2-3.1-1.4-4.9c0.5-1.8,2-3.1,3.8-3.3c4.9-0.8,15.6-3.2,21.6-10.7
		c-22.9-2.8-34,8.6-34.4,9.2c-1.8,1.9-4.7,2-6.7,0.3c-1.9-1.8-2.1-4.7-0.3-6.6c0.7-0.8,16.9-18,49.8-10.9c1.3,0.3,2.5,1.1,3.1,2.4
		c0.7,1.2,0.8,2.6,0.3,4c-4.4,11.4-14.7,17-23,19.7c3.2,2.7,7.1,5.8,10.9,7.2c1.8,0.5,3,2.1,3.1,4c0.1,1.9-0.9,3.6-2.5,4.4
		C155.6,96,143.1,94,134.7,92c-2.7,9.8-7.5,16.6-15,21.7C118.8,114.1,118,114.4,117.1,114.4z"/>
	<path d="M125.3,76.6c-2.2-0.4-3.8-2.5-3.8-4.7l0-5.2c0-16.9,6.5-26.8,17.1-37.3c2-2,2-5.3,0-7.3c-2-2-5.3-2-7.3,0l-4.6,4.6
		c-9.9,9.8-14.4,27.2-14.4,40v5.1c0,2.8-2.4,5.1-5.2,4.8c-2.3-0.3-4.1-2.2-4.1-4.6v-5c0-13.8,4.5-34.4,17.3-47.2L125,15
		c5.5-5.5,15.2-5.5,20.8,0c5.7,5.7,5.7,15,0,20.8c-9.4,9.4-14.5,17.1-14.5,31.1v5C131.2,75,128.5,77.3,125.3,76.6z"/>
</g>
<g>
	
		<image style="overflow:visible;opacity:0.4;" width="357" height="302" xlink:href="1CE6AA7C3C160F6B.png"  transform="matrix(1 0 0 1 241 29)">
	</image>
	<g>
		<text transform="matrix(1 0 0 1 264.2891 205.6094)"><tspan x="0" y="0" class="st3 st4 st5">Eat</tspan><tspan x="251.5" y="0" class="st6 st4 st5"> </tspan></text>
	</g>
</g>
<g>
	
		<image style="overflow:visible;opacity:0.7;" width="533" height="340" xlink:href="1CE6AA7C3C160F69.png"  transform="matrix(1 0 0 1 504 -9)">
	</image>
	<g>
		<rect x="539.2" y="120" class="st7" width="460.8" height="174"/>
		<text transform="matrix(1 0 0 1 539.1982 201.1235)" class="st8 st9">Local</text>
	</g>
</g>
</svg>
