<?xml version="1.0" encoding="utf-8"?>
<!-- Generator: Adobe Illustrator 24.2.0, SVG Export Plug-In . SVG Version: 6.00 Build 0)  -->
<svg version="1.1" id="Layer_1" xmlns="http://www.w3.org/2000/svg" xmlns:xlink="http://www.w3.org/1999/xlink" x="0px" y="0px"
	 viewBox="0 0 12 12" style="enable-background:new 0 0 12 12;" xml:space="preserve">
<style type="text/css">
	.st0{fill:#FFDEE1;}
	.st1{display:none;fill:#BE0000;}
	.st2{fill:#BE0000;}
	.st3{fill:#FFFFFF;stroke:#000000;stroke-miterlimit:10;}
</style>
<ellipse class="st0" cx="6.1" cy="5" rx="3.5" ry="3.5"/>
<rect x="4.5" y="6.6" transform="matrix(0.6819 -0.7314 0.7314 0.6819 -4.068 7.0097)" class="st0" width="3" height="3.2"/>
<g id="Layer_1_1_">
	<path class="st1" d="M6,6.8C5,6.8,4.1,6,4.1,4.9S5,3,6,3s1.9,0.8,1.9,1.9C7.9,5.9,7,6.7,6,6.8z M6,3.8c-0.6,0-1.1,0.5-1.1,1.1
		S5.4,6,6,6s1.1-0.5,1.1-1.1S6.6,3.8,6,3.8z"/>
	<path class="st2" d="M6,11.2L2.8,7.5c0-0.1-0.1-0.1-0.1-0.2C2.2,6.6,1.9,5.8,1.9,4.9c0-2.3,1.8-4.1,4.1-4.1s4.1,1.8,4.1,4.1
		c0,0.9-0.3,1.8-0.8,2.5l0,0c0,0-0.1,0.1-0.1,0.2L6,11.2z M3.3,6.9L3.3,6.9L6,10.1L8.6,7l0.1-0.1c0.4-0.6,0.7-1.3,0.7-2
		C9.4,3,7.9,1.5,6,1.5S2.6,3,2.6,4.9C2.6,5.6,2.9,6.3,3.3,6.9L3.3,6.9z"/>
</g>
<g id="Layer_2_1_">
</g>
<path class="st3" d="M2.2,4.9"/>
</svg>
