<?xml version="1.0" encoding="utf-8"?>
<!-- Generator: Adobe Illustrator 24.2.1, SVG Export Plug-In . SVG Version: 6.00 Build 0)  -->
<svg version="1.1" id="Layer_1" xmlns="http://www.w3.org/2000/svg" xmlns:xlink="http://www.w3.org/1999/xlink" x="0px" y="0px"
	 viewBox="0 0 50 50" style="enable-background:new 0 0 50 50;" xml:space="preserve">
<style type="text/css">
	.st0{fill:#F44336;}
	.st1{fill:#4CAF50;}
	.st2{fill:#388E3C;}
</style>
<g>
	<path class="st0" d="M35.3,11.4c-0.1,0-0.2-0.1-0.3-0.1l-18.5-0.7c-0.1,0-0.2,0-0.3,0C7,13.6,1,20.9,1,29.2C1,40.1,11.7,49,24.8,49
		s23.8-8.9,23.8-19.8C48.6,21.5,43.5,14.7,35.3,11.4z"/>
	<path class="st1" d="M36.6,9.8c-0.1-0.3-0.4-0.4-0.7-0.5c-5.6-1.2-8.9,0.9-10,1.9l-3.5-0.7c-1.3-1.5-5.1-2.8-6.3-3.1
		c-0.3-0.1-0.7,0-0.9,0.2c-0.2,0.2-0.4,0.5-0.4,0.9c0,0.1,0.2,3,1.6,5.6c-1,0.5-2.4,1.2-3,1.4c-0.4,0.2-0.7,0.6-0.6,1.1
		c0.2,0.8,1.1,1.6,6.3,1.8c1.3,2.5,2.8,4.3,4.2,4.9c0.1,0.1,0.3,0.1,0.4,0.1c0.2,0,0.4-0.1,0.6-0.2c1.6-1.1,2.6-2.5,3.2-4.6
		c1.8,0.4,4.4,0.9,6.7-0.4c0.3-0.2,0.6-0.6,0.5-0.9c0-0.4-0.3-0.7-0.6-0.9c-0.8-0.3-1.6-0.9-2.3-1.5c1.7-0.6,3.9-1.7,4.8-4.1
		C36.8,10.4,36.7,10.1,36.6,9.8z"/>
	<path class="st2" d="M29.9,2.3c-1.2-1.2-3.2-1.2-4.4,0l-1,1c-2.7,2.7-3.6,7-3.6,10v1c0,0.5,0.4,1,1,1h4c0.5,0,1-0.4,1-1v-1
		c0-3,1.1-4.6,3.1-6.6C31.1,5.5,31.1,3.5,29.9,2.3z"/>
	<path d="M24.8,49C11.7,49,1,40.1,1,29.2c0-8.3,6-15.5,15.2-18.5c0.5-0.2,1.1,0.1,1.2,0.6c0.2,0.5-0.1,1.1-0.6,1.2
		C8.4,15.2,3,21.8,3,29.2C3,39,12.8,47,24.8,47s21.8-8,21.8-17.9c0-6.8-4.6-12.9-12.1-16C34,13,33.8,12.4,34,11.9
		c0.2-0.5,0.8-0.8,1.3-0.5c8.2,3.4,13.3,10.2,13.3,17.8C48.6,40.1,37.9,49,24.8,49z"/>
	<path d="M11.9,41c-0.2,0-0.4-0.1-0.6-0.2c-4-3-6.3-7.2-6.3-11.6c0-0.6,0.4-1,1-1c0.6,0,1,0.4,1,1c0,3.8,2,7.4,5.6,10
		c0.4,0.3,0.5,1,0.2,1.4C12.5,40.9,12.2,41,11.9,41z"/>
	<path d="M23.8,23.2c-0.1,0-0.3,0-0.4-0.1c-1.3-0.6-2.8-2.4-4.2-4.9c-5.3-0.2-6.2-1-6.3-1.8c-0.1-0.5,0.2-0.9,0.6-1.1
		c0.6-0.3,2-0.9,3-1.4c-1.4-2.5-1.6-5.4-1.6-5.6c0-0.3,0.1-0.7,0.4-0.9c0.3-0.2,0.6-0.3,0.9-0.2c1.3,0.4,5.7,1.8,6.5,3.6
		c0.3,0.5,0.1,1.1-0.4,1.3c-0.5,0.3-1.1,0.1-1.3-0.4c-0.3-0.5-2-1.4-3.8-2c0.2,1.1,0.7,2.7,1.6,3.9c0.3,0.4,0.2,1.1-0.2,1.4
		c-0.4,0.3-1.1,0.7-1.7,1c0.8,0.1,1.8,0.2,3.1,0.2c0.4,0,0.7,0.2,0.9,0.6c1.1,2.3,2.2,3.6,3,4.2c1.1-0.9,1.7-2.1,2-3.9
		c0.1-0.3,0.2-0.5,0.5-0.7c0.2-0.1,0.5-0.2,0.8-0.1c0.9,0.3,2.6,0.7,4.2,0.6c-0.7-0.5-1.3-1.1-1.7-1.5c-0.2-0.2-0.3-0.3-0.4-0.4
		c-0.3-0.3-0.4-0.7-0.3-1c0.1-0.4,0.4-0.7,0.8-0.7c1-0.2,3.3-0.7,4.5-2.2c-4.8-0.6-7.1,1.8-7.2,1.9c-0.4,0.4-1,0.4-1.4,0.1
		c-0.4-0.4-0.4-1-0.1-1.4c0.1-0.2,3.6-3.8,10.5-2.3c0.3,0.1,0.5,0.2,0.7,0.5c0.1,0.3,0.2,0.6,0.1,0.8c-0.9,2.4-3.1,3.6-4.8,4.1
		c0.7,0.6,1.5,1.2,2.3,1.5c0.4,0.1,0.6,0.4,0.7,0.8c0,0.4-0.2,0.8-0.5,0.9c-2.3,1.2-4.9,0.8-6.7,0.4C27,20.5,26,22,24.4,23
		C24.2,23.1,24,23.2,23.8,23.2z"/>
	<path d="M25.6,15.3c-0.5-0.1-0.8-0.5-0.8-1v-1.1c0-3.6,1.4-5.6,3.6-7.9c0.4-0.4,0.4-1.1,0-1.5c-0.4-0.4-1.1-0.4-1.5,0l-1,1
		c-2.1,2.1-3,5.7-3,8.4v1.1c0,0.6-0.5,1.1-1.1,1c-0.5-0.1-0.9-0.5-0.9-1v-1.1c0-2.9,0.9-7.2,3.6-9.9l1-1c1.2-1.2,3.2-1.2,4.4,0
		c1.2,1.2,1.2,3.2,0,4.4c-2,2-3,3.6-3,6.5v1C26.8,14.9,26.2,15.4,25.6,15.3z"/>
</g>
</svg>
